# Blender v2.91.0 OBJ File: ''
# www.blender.org
mtllib cockpit.mtl
o BezierCurve.001
v 2.000000 -0.000000 0.917389
v 1.998736 -0.000000 0.900282
v 1.996058 -0.000000 0.863591
v 1.992221 -0.000000 0.811052
v 1.987478 -0.000000 0.746401
v 1.982083 -0.000000 0.673374
v 1.976290 -0.000000 0.595707
v 1.970354 -0.000000 0.517135
v 1.964528 -0.000000 0.441396
v 1.959067 -0.000000 0.372224
v 1.954223 -0.000000 0.313356
v 1.950252 -0.000000 0.268527
v 1.947408 -0.000000 0.241474
v 1.944697 -0.000000 0.218278
v 1.940919 -0.000000 0.183728
v 1.936020 -0.000000 0.139638
v 1.929947 -0.000000 0.087817
v 1.922646 -0.000000 0.030080
v 1.914061 0.000000 -0.031764
v 1.904139 0.000000 -0.095901
v 1.892826 0.000000 -0.160519
v 1.880068 0.000000 -0.223808
v 1.865811 0.000000 -0.283954
v 1.850000 0.000000 -0.339147
v 1.832581 0.000000 -0.387573
v 1.814056 0.000000 -0.432554
v 1.796000 0.000000 -0.475724
v 1.777949 0.000000 -0.517674
v 1.759439 0.000000 -0.558994
v 1.740006 0.000000 -0.600277
v 1.719186 0.000000 -0.642112
v 1.696513 0.000000 -0.685091
v 1.671524 0.000000 -0.729804
v 1.643755 0.000000 -0.776843
v 1.612741 0.000000 -0.826798
v 1.578017 0.000000 -0.880260
v 1.539121 0.000000 -0.937820
v 1.499498 0.000000 -0.995289
v 1.461854 0.000000 -1.049275
v 1.425470 0.000000 -1.100321
v 1.389629 0.000000 -1.148970
v 1.353612 0.000000 -1.195763
v 1.316701 0.000000 -1.241242
v 1.278177 0.000000 -1.285949
v 1.237323 0.000000 -1.330427
v 1.193420 0.000000 -1.375217
v 1.145750 0.000000 -1.420862
v 1.093595 0.000000 -1.467903
v 1.036237 0.000000 -1.516883
v 0.976832 0.000000 -1.563124
v 0.912979 0.000000 -1.607101
v 0.845739 0.000000 -1.648654
v 0.776174 0.000000 -1.687622
v 0.705345 0.000000 -1.723846
v 0.634315 0.000000 -1.757168
v 0.564145 0.000000 -1.787426
v 0.495896 0.000000 -1.814462
v 0.430632 0.000000 -1.838116
v 0.369412 0.000000 -1.858228
v 0.313299 0.000000 -1.874638
v 0.263356 0.000000 -1.887188
v 0.218197 0.000000 -1.896674
v 0.173729 0.000000 -1.904436
v 0.129813 0.000000 -1.910473
v 0.086312 0.000000 -1.914784
v 0.043087 0.000000 -1.917372
v 0.000000 0.000000 -1.918234
v -0.043087 0.000000 -1.917372
v -0.086312 0.000000 -1.914784
v -0.129814 0.000000 -1.910473
v -0.173729 0.000000 -1.904436
v -0.218197 0.000000 -1.896674
v -0.263356 0.000000 -1.887188
v -0.313300 0.000000 -1.874638
v -0.369412 0.000000 -1.858228
v -0.430632 0.000000 -1.838116
v -0.495897 0.000000 -1.814462
v -0.564145 0.000000 -1.787426
v -0.634315 0.000000 -1.757168
v -0.705346 0.000000 -1.723846
v -0.776174 0.000000 -1.687622
v -0.845739 0.000000 -1.648654
v -0.912979 0.000000 -1.607101
v -0.976833 0.000000 -1.563124
v -1.036237 0.000000 -1.516883
v -1.093596 0.000000 -1.467903
v -1.145751 0.000000 -1.420862
v -1.193421 0.000000 -1.375217
v -1.237324 0.000000 -1.330427
v -1.278178 0.000000 -1.285949
v -1.316701 0.000000 -1.241242
v -1.353613 0.000000 -1.195763
v -1.389630 0.000000 -1.148970
v -1.425471 0.000000 -1.100321
v -1.461854 0.000000 -1.049275
v -1.499498 0.000000 -0.995288
v -1.539121 0.000000 -0.937820
v -1.578018 0.000000 -0.880260
v -1.612741 0.000000 -0.826798
v -1.643755 0.000000 -0.776843
v -1.671525 0.000000 -0.729804
v -1.696513 0.000000 -0.685091
v -1.719186 0.000000 -0.642112
v -1.740007 0.000000 -0.600277
v -1.759440 0.000000 -0.558995
v -1.777950 0.000000 -0.517674
v -1.796000 0.000000 -0.475724
v -1.814056 0.000000 -0.432555
v -1.832581 0.000000 -0.387574
v -1.850000 0.000000 -0.339147
v -1.865811 0.000000 -0.283955
v -1.880068 0.000000 -0.223808
v -1.892826 0.000000 -0.160520
v -1.904139 0.000000 -0.095901
v -1.914061 0.000000 -0.031764
v -1.922646 -0.000000 0.030079
v -1.929948 -0.000000 0.087817
v -1.936021 -0.000000 0.139637
v -1.940919 -0.000000 0.183728
v -1.944697 -0.000000 0.218277
v -1.947408 -0.000000 0.241473
v -1.950252 -0.000000 0.268527
v -1.954223 -0.000000 0.313355
v -1.959067 -0.000000 0.372224
v -1.964528 -0.000000 0.441395
v -1.970354 -0.000000 0.517135
v -1.976290 -0.000000 0.595706
v -1.982083 -0.000000 0.673373
v -1.987478 -0.000000 0.746400
v -1.992221 -0.000000 0.811051
v -1.996058 -0.000000 0.863590
v -1.998736 -0.000000 0.900281
v -2.000000 -0.000000 0.917389
l 1 2
l 3 4
l 5 6
l 7 8
l 9 10
l 11 12
l 13 14
l 15 16
l 17 18
l 19 20
l 21 22
l 23 24
l 25 26
l 27 28
l 29 30
l 31 32
l 33 34
l 35 36
l 37 38
l 39 40
l 41 42
l 43 44
l 45 46
l 47 48
l 49 50
l 51 52
l 53 54
l 55 56
l 57 58
l 59 60
l 61 62
l 63 64
l 65 66
l 67 68
l 69 70
l 71 72
l 73 74
l 75 76
l 77 78
l 79 80
l 81 82
l 83 84
l 85 86
l 87 88
l 89 90
l 91 92
l 93 94
l 95 96
l 97 98
l 99 100
l 101 102
l 103 104
l 105 106
l 107 108
l 109 110
l 111 112
l 113 114
l 115 116
l 117 118
l 119 120
l 121 122
l 123 124
l 125 126
l 127 128
l 129 130
l 131 132
l 2 3
l 4 5
l 6 7
l 8 9
l 10 11
l 12 13
l 14 15
l 16 17
l 18 19
l 20 21
l 22 23
l 24 25
l 26 27
l 28 29
l 30 31
l 32 33
l 34 35
l 36 37
l 38 39
l 40 41
l 42 43
l 44 45
l 46 47
l 48 49
l 50 51
l 52 53
l 54 55
l 56 57
l 58 59
l 60 61
l 62 63
l 64 65
l 66 67
l 68 69
l 70 71
l 72 73
l 74 75
l 76 77
l 78 79
l 80 81
l 82 83
l 84 85
l 86 87
l 88 89
l 90 91
l 92 93
l 94 95
l 96 97
l 98 99
l 100 101
l 102 103
l 104 105
l 106 107
l 108 109
l 110 111
l 112 113
l 114 115
l 116 117
l 118 119
l 120 121
l 122 123
l 124 125
l 126 127
l 128 129
l 130 131
l 132 133
o Cube_Cube.001
v -2.390889 -0.083956 0.184122
v -1.711287 -0.388897 0.258249
v -1.765461 -0.388897 0.950799
v -2.447033 -0.083956 0.897767
v -1.555176 0.083956 0.967161
v -2.236748 0.388897 0.914129
v 2.181700 0.388897 0.211576
v 1.501999 0.083956 0.284782
v 1.555491 0.083956 0.971472
v 2.237064 0.388897 0.918439
v 1.765776 -0.388897 0.955109
v 2.447349 -0.083956 0.902078
v 2.391408 -0.083956 0.188989
v 1.711706 -0.388897 0.262196
v -1.501610 0.083956 0.281119
v -1.587758 -0.388897 -0.361011
v -1.393114 0.083956 -0.279762
v -1.262688 -0.388897 -0.921416
v -1.090619 0.083956 -0.799432
v -0.835016 -0.388897 -1.373751
v -0.710721 0.083956 -1.203344
v -0.277260 -0.388897 -1.638911
v -0.218048 0.083956 -1.436473
v 0.280812 -0.388897 -1.637814
v 0.221113 0.083956 -1.435519
v 0.837850 -0.388897 -1.371548
v 0.713052 0.083956 -1.201509
v 1.265066 -0.388897 -0.918024
v 1.092922 0.083956 -0.796147
v 1.589269 -0.388897 -0.357367
v 1.394507 0.083956 -0.276402
v -2.181212 0.388897 0.206992
v -2.023990 0.388897 -0.543104
v -2.218633 -0.083956 -0.624353
v -1.648324 0.388897 -1.194804
v -1.820392 -0.083956 -1.316787
v -1.113582 0.388897 -1.755663
v -1.237876 -0.083956 -1.926070
v -0.409965 0.388897 -2.092614
v -0.469176 -0.083956 -2.295053
v 0.414609 0.388897 -2.091196
v 0.474309 -0.083956 -2.293491
v 1.117544 0.388897 -1.752636
v 1.242342 -0.083956 -1.922674
v 1.650871 0.388897 -1.191174
v 1.823015 -0.083956 -1.313051
v 2.025766 0.388897 -0.538824
v 2.220528 -0.083956 -0.619789
vt 0.375000 0.227273
vt 0.625000 0.227273
vt 0.625000 0.250000
vt 0.375000 0.250000
vt 0.625000 0.500000
vt 0.375000 0.500000
vt 0.375000 0.727273
vt 0.625000 0.727273
vt 0.625000 0.750000
vt 0.375000 0.750000
vt 0.625000 1.000000
vt 0.375000 1.000000
vt 0.125000 0.727273
vt 0.125000 0.750000
vt 0.875000 0.727273
vt 0.875000 0.750000
vt 0.875000 0.500000
vt 0.875000 0.522727
vt 0.625000 0.522727
vt 0.875000 0.545455
vt 0.625000 0.545455
vt 0.875000 0.568182
vt 0.625000 0.568182
vt 0.875000 0.590909
vt 0.625000 0.590909
vt 0.875000 0.613636
vt 0.625000 0.613636
vt 0.875000 0.636364
vt 0.625000 0.636364
vt 0.875000 0.659091
vt 0.625000 0.659091
vt 0.875000 0.681818
vt 0.625000 0.681818
vt 0.875000 0.704545
vt 0.625000 0.704545
vt 0.125000 0.500000
vt 0.375000 0.522727
vt 0.125000 0.522727
vt 0.375000 0.545455
vt 0.125000 0.545455
vt 0.375000 0.568182
vt 0.125000 0.568182
vt 0.375000 0.590909
vt 0.125000 0.590909
vt 0.375000 0.613636
vt 0.125000 0.613636
vt 0.375000 0.636364
vt 0.125000 0.636364
vt 0.375000 0.659091
vt 0.125000 0.659091
vt 0.375000 0.681818
vt 0.125000 0.681818
vt 0.375000 0.704545
vt 0.125000 0.704545
vt 0.375000 0.000000
vt 0.625000 0.000000
vt 0.625000 0.022727
vt 0.375000 0.022727
vt 0.625000 0.045455
vt 0.375000 0.045455
vt 0.625000 0.068182
vt 0.375000 0.068182
vt 0.625000 0.090909
vt 0.375000 0.090909
vt 0.625000 0.113636
vt 0.375000 0.113636
vt 0.625000 0.136364
vt 0.375000 0.136364
vt 0.625000 0.159091
vt 0.375000 0.159091
vt 0.625000 0.181818
vt 0.375000 0.181818
vt 0.625000 0.204545
vt 0.375000 0.204545
vn -0.4046 -0.9127 -0.0571
vn -0.4046 -0.9127 -0.0581
vn -0.4062 -0.9132 -0.0319
vn -0.0776 -0.0000 0.9970
vn -0.4049 0.9127 0.0559
vn -0.4049 0.9126 0.0567
vn -0.4062 0.9132 0.0317
vn 0.0776 -0.0000 0.9970
vn 0.9046 0.4061 -0.1292
vn 0.9045 0.4061 -0.1303
vn 0.9105 0.4073 -0.0714
vn -0.9056 -0.4058 0.1235
vn -0.9057 -0.4059 0.1227
vn -0.9105 -0.4073 0.0710
vn 0.9105 -0.4073 0.0712
vn 0.9055 -0.4059 0.1236
vn 0.9054 -0.4059 0.1244
vn 0.8535 -0.4090 0.3229
vn 0.8545 -0.4090 0.3203
vn 0.7326 -0.4063 0.5461
vn 0.7318 -0.4063 0.5472
vn 0.5369 -0.4084 0.7382
vn 0.5368 -0.4084 0.7383
vn 0.2028 -0.4063 0.8909
vn 0.1963 -0.4062 0.8925
vn -0.2055 -0.4063 0.8903
vn -0.1991 -0.4061 0.8919
vn -0.5384 -0.4084 0.7371
vn -0.5382 -0.4084 0.7372
vn -0.7335 -0.4063 0.5449
vn -0.7327 -0.4063 0.5460
vn -0.8540 -0.4090 0.3216
vn -0.8550 -0.4090 0.3190
vn -0.9105 0.4073 -0.0716
vn -0.9044 0.4061 -0.1311
vn -0.9045 0.4062 -0.1301
vn -0.8529 0.4086 -0.3250
vn -0.8521 0.4086 -0.3271
vn -0.7311 0.4065 -0.5480
vn -0.7320 0.4065 -0.5468
vn -0.5361 0.4081 -0.7389
vn -0.5363 0.4081 -0.7388
vn -0.1984 0.4064 -0.8919
vn -0.2047 0.4065 -0.8904
vn 0.2009 0.4063 -0.8914
vn 0.2072 0.4064 -0.8899
vn 0.5376 0.4081 -0.7378
vn 0.5378 0.4081 -0.7377
vn 0.7320 0.4065 -0.5468
vn 0.7328 0.4065 -0.5456
vn 0.8534 0.4086 -0.3237
vn 0.8526 0.4086 -0.3258
vn 0.4062 0.9132 0.0318
vn 0.4048 0.9126 0.0571
vn 0.4048 0.9127 0.0563
vn 0.3801 0.9139 0.1426
vn 0.3791 0.9139 0.1450
vn 0.3267 0.9128 0.2451
vn 0.3275 0.9128 0.2440
vn 0.2388 0.9137 0.3289
vn 0.2390 0.9137 0.3288
vn 0.0857 0.9127 0.3995
vn 0.0924 0.9129 0.3977
vn -0.0870 0.9127 0.3993
vn -0.0936 0.9128 0.3975
vn -0.2395 0.9137 0.3284
vn -0.2396 0.9137 0.3283
vn -0.3271 0.9128 0.2445
vn -0.3279 0.9128 0.2434
vn -0.3803 0.9139 0.1420
vn -0.3794 0.9139 0.1444
vn 0.4062 -0.9132 -0.0318
vn 0.4046 -0.9127 -0.0577
vn 0.4047 -0.9127 -0.0567
vn 0.3801 -0.9138 -0.1427
vn 0.3793 -0.9139 -0.1450
vn 0.3269 -0.9128 -0.2446
vn 0.3277 -0.9129 -0.2435
vn 0.2394 -0.9136 -0.3285
vn 0.2396 -0.9136 -0.3284
vn 0.0872 -0.9127 -0.3992
vn 0.0938 -0.9129 -0.3974
vn -0.0860 -0.9127 -0.3994
vn -0.0927 -0.9129 -0.3976
vn -0.2388 -0.9136 -0.3290
vn -0.2389 -0.9136 -0.3289
vn -0.3265 -0.9128 -0.2452
vn -0.3274 -0.9128 -0.2440
vn -0.3799 -0.9138 -0.1433
vn -0.3790 -0.9139 -0.1455
usemtl None
s 1
f 134/1/1 135/2/2 136/3/3 137/4/3
f 137/4/4 136/3/4 138/5/4 139/6/4
f 140/7/5 141/8/6 142/9/7 143/10/7
f 143/10/8 142/9/8 144/11/8 145/12/8
f 146/13/9 140/7/10 143/10/11 145/14/11
f 141/8/12 147/15/13 144/16/14 142/9/14
f 138/5/15 136/17/15 135/18/16 148/19/17
f 148/19/17 135/18/16 149/20/18 150/21/19
f 150/21/19 149/20/18 151/22/20 152/23/21
f 152/23/21 151/22/20 153/24/22 154/25/23
f 154/25/23 153/24/22 155/26/24 156/27/25
f 156/27/25 155/26/24 157/28/26 158/29/27
f 158/29/27 157/28/26 159/30/28 160/31/29
f 160/31/29 159/30/28 161/32/30 162/33/31
f 162/33/31 161/32/30 163/34/32 164/35/33
f 164/35/33 163/34/32 147/15/13 141/8/12
f 137/36/34 139/6/34 165/37/35 134/38/36
f 134/38/36 165/37/35 166/39/37 167/40/38
f 167/40/38 166/39/37 168/41/39 169/42/40
f 169/42/40 168/41/39 170/43/41 171/44/42
f 171/44/42 170/43/41 172/45/43 173/46/44
f 173/46/44 172/45/43 174/47/45 175/48/46
f 175/48/46 174/47/45 176/49/47 177/50/48
f 177/50/48 176/49/47 178/51/49 179/52/50
f 179/52/50 178/51/49 180/53/51 181/54/52
f 181/54/52 180/53/51 140/7/10 146/13/9
f 139/6/53 138/5/53 148/19/54 165/37/55
f 165/37/55 148/19/54 150/21/56 166/39/57
f 166/39/57 150/21/56 152/23/58 168/41/59
f 168/41/59 152/23/58 154/25/60 170/43/61
f 170/43/61 154/25/60 156/27/62 172/45/63
f 172/45/63 156/27/62 158/29/64 174/47/65
f 174/47/65 158/29/64 160/31/66 176/49/67
f 176/49/67 160/31/66 162/33/68 178/51/69
f 178/51/69 162/33/68 164/35/70 180/53/71
f 180/53/71 164/35/70 141/8/6 140/7/5
f 145/55/72 144/56/72 147/57/73 146/58/74
f 146/58/74 147/57/73 163/59/75 181/60/76
f 181/60/76 163/59/75 161/61/77 179/62/78
f 179/62/78 161/61/77 159/63/79 177/64/80
f 177/64/80 159/63/79 157/65/81 175/66/82
f 175/66/82 157/65/81 155/67/83 173/68/84
f 173/68/84 155/67/83 153/69/85 171/70/86
f 171/70/86 153/69/85 151/71/87 169/72/88
f 169/72/88 151/71/87 149/73/89 167/74/90
f 167/74/90 149/73/89 135/2/2 134/1/1
o Cylinder
v 0.000000 -0.944995 -2.011740
v 0.000000 0.301729 -2.011740
v 0.121612 0.301729 -1.999763
v 0.121612 -0.944995 -1.999763
v 0.238550 0.301729 -1.964290
v 0.238550 -0.944995 -1.964290
v 0.346321 0.301729 -1.906685
v 0.346321 -0.944995 -1.906685
v 0.440783 0.301729 -1.829162
v 0.440783 -0.944995 -1.829162
v 0.518306 0.301729 -1.734700
v 0.518306 -0.944995 -1.734700
v 0.575911 0.301729 -1.626929
v 0.575911 -0.944995 -1.626929
v 0.611384 0.301729 -1.509990
v 0.611384 -0.944995 -1.509990
v 0.623362 0.301729 -1.388379
v 0.623362 -0.944995 -1.388379
v 0.611384 0.301729 -1.266767
v 0.611384 -0.944995 -1.266767
v 0.575911 0.301729 -1.149828
v 0.575911 -0.944995 -1.149828
v 0.518306 0.301729 -1.042057
v 0.518306 -0.944995 -1.042057
v 0.440783 0.301729 -0.947595
v 0.440783 -0.944995 -0.947595
v 0.346321 0.301729 -0.870072
v 0.346321 -0.944995 -0.870072
v 0.238550 0.301729 -0.812467
v 0.238550 -0.944995 -0.812467
v 0.121612 0.301729 -0.776994
v 0.121612 -0.944995 -0.776994
v 0.000000 0.301729 -0.765017
v 0.000000 -0.944995 -0.765017
v -0.121612 0.301729 -0.776994
v -0.121612 -0.944995 -0.776994
v -0.238551 0.301729 -0.812467
v -0.238551 -0.944995 -0.812467
v -0.346322 0.301729 -0.870072
v -0.346322 -0.944995 -0.870072
v -0.440784 0.301729 -0.947595
v -0.440784 -0.944995 -0.947595
v -0.518307 0.301729 -1.042058
v -0.518307 -0.944995 -1.042058
v -0.575912 0.301729 -1.149829
v -0.575912 -0.944995 -1.149829
v -0.611384 0.301729 -1.266767
v -0.611384 -0.944995 -1.266767
v -0.623362 0.301729 -1.388379
v -0.623362 -0.944995 -1.388379
v -0.611384 0.301729 -1.509991
v -0.611384 -0.944995 -1.509991
v -0.575911 0.301729 -1.626929
v -0.575911 -0.944995 -1.626929
v -0.518306 0.301729 -1.734700
v -0.518306 -0.944995 -1.734700
v -0.440783 0.301729 -1.829162
v -0.440783 -0.944995 -1.829162
v -0.346321 0.301729 -1.906685
v -0.346321 -0.944995 -1.906685
v -0.238549 0.301729 -1.964290
v -0.238549 -0.944995 -1.964290
v -0.121611 0.301729 -1.999763
v -0.121611 -0.944995 -1.999763
vt 1.000000 0.500000
vt 1.000000 1.000000
vt 0.968750 1.000000
vt 0.968750 0.500000
vt 0.937500 1.000000
vt 0.937500 0.500000
vt 0.906250 1.000000
vt 0.906250 0.500000
vt 0.875000 1.000000
vt 0.875000 0.500000
vt 0.843750 1.000000
vt 0.843750 0.500000
vt 0.812500 1.000000
vt 0.812500 0.500000
vt 0.781250 1.000000
vt 0.781250 0.500000
vt 0.750000 1.000000
vt 0.750000 0.500000
vt 0.718750 1.000000
vt 0.718750 0.500000
vt 0.687500 1.000000
vt 0.687500 0.500000
vt 0.656250 1.000000
vt 0.656250 0.500000
vt 0.625000 1.000000
vt 0.625000 0.500000
vt 0.593750 1.000000
vt 0.593750 0.500000
vt 0.562500 1.000000
vt 0.562500 0.500000
vt 0.531250 1.000000
vt 0.531250 0.500000
vt 0.500000 1.000000
vt 0.500000 0.500000
vt 0.468750 1.000000
vt 0.468750 0.500000
vt 0.437500 1.000000
vt 0.437500 0.500000
vt 0.406250 1.000000
vt 0.406250 0.500000
vt 0.375000 1.000000
vt 0.375000 0.500000
vt 0.343750 1.000000
vt 0.343750 0.500000
vt 0.312500 1.000000
vt 0.312500 0.500000
vt 0.281250 1.000000
vt 0.281250 0.500000
vt 0.250000 1.000000
vt 0.250000 0.500000
vt 0.218750 1.000000
vt 0.218750 0.500000
vt 0.187500 1.000000
vt 0.187500 0.500000
vt 0.156250 1.000000
vt 0.156250 0.500000
vt 0.125000 1.000000
vt 0.125000 0.500000
vt 0.093750 1.000000
vt 0.093750 0.500000
vt 0.062500 1.000000
vt 0.062500 0.500000
vt 0.296822 0.485388
vt 0.250000 0.490000
vt 0.203179 0.485389
vt 0.158156 0.471731
vt 0.116663 0.449553
vt 0.080295 0.419706
vt 0.050447 0.383337
vt 0.028269 0.341844
vt 0.014612 0.296822
vt 0.010000 0.250000
vt 0.014611 0.203179
vt 0.028269 0.158156
vt 0.050447 0.116663
vt 0.080294 0.080294
vt 0.116663 0.050447
vt 0.158156 0.028269
vt 0.203178 0.014612
vt 0.250000 0.010000
vt 0.296822 0.014612
vt 0.341844 0.028269
vt 0.383337 0.050447
vt 0.419706 0.080294
vt 0.449553 0.116663
vt 0.471731 0.158156
vt 0.485388 0.203178
vt 0.490000 0.250000
vt 0.485388 0.296822
vt 0.471731 0.341844
vt 0.449553 0.383337
vt 0.419706 0.419706
vt 0.383337 0.449553
vt 0.341844 0.471731
vt 0.031250 1.000000
vt 0.031250 0.500000
vt 0.000000 1.000000
vt 0.000000 0.500000
vt 0.750000 0.490000
vt 0.796822 0.485388
vt 0.841844 0.471731
vt 0.883337 0.449553
vt 0.919706 0.419706
vt 0.949553 0.383337
vt 0.971731 0.341844
vt 0.985388 0.296822
vt 0.990000 0.250000
vt 0.985388 0.203178
vt 0.971731 0.158156
vt 0.949553 0.116663
vt 0.919706 0.080294
vt 0.883337 0.050447
vt 0.841844 0.028269
vt 0.796822 0.014612
vt 0.750000 0.010000
vt 0.703178 0.014612
vt 0.658156 0.028269
vt 0.616663 0.050447
vt 0.580294 0.080294
vt 0.550447 0.116663
vt 0.528269 0.158156
vt 0.514611 0.203179
vt 0.510000 0.250000
vt 0.514612 0.296822
vt 0.528269 0.341844
vt 0.550447 0.383337
vt 0.580295 0.419706
vt 0.616663 0.449553
vt 0.658156 0.471731
vt 0.703179 0.485389
vn -0.0000 0.0000 -1.0000
vn 0.1951 0.0000 -0.9808
vn 0.3827 0.0000 -0.9239
vn 0.5556 0.0000 -0.8315
vn 0.7071 0.0000 -0.7071
vn 0.8315 0.0000 -0.5556
vn 0.9239 0.0000 -0.3827
vn 0.9808 0.0000 -0.1951
vn 1.0000 -0.0000 -0.0000
vn 0.9808 -0.0000 0.1951
vn 0.9239 -0.0000 0.3827
vn 0.8315 -0.0000 0.5556
vn 0.7071 -0.0000 0.7071
vn 0.5556 -0.0000 0.8315
vn 0.3827 -0.0000 0.9239
vn 0.1951 -0.0000 0.9808
vn 0.0000 -0.0000 1.0000
vn -0.1951 -0.0000 0.9808
vn -0.3827 -0.0000 0.9239
vn -0.5556 -0.0000 0.8315
vn -0.7071 -0.0000 0.7071
vn -0.8315 -0.0000 0.5556
vn -0.9239 -0.0000 0.3827
vn -0.9808 -0.0000 0.1951
vn -1.0000 0.0000 -0.0000
vn -0.9808 0.0000 -0.1951
vn -0.9239 0.0000 -0.3827
vn -0.8315 0.0000 -0.5556
vn -0.7071 0.0000 -0.7071
vn -0.5556 0.0000 -0.8315
vn -0.3827 0.0000 -0.9239
vn -0.0000 1.0000 0.0000
vn -0.1951 0.0000 -0.9808
vn 0.0000 -1.0000 -0.0000
usemtl None
s 1
f 182/75/91 183/76/91 184/77/92 185/78/92
f 185/78/92 184/77/92 186/79/93 187/80/93
f 187/80/93 186/79/93 188/81/94 189/82/94
f 189/82/94 188/81/94 190/83/95 191/84/95
f 191/84/95 190/83/95 192/85/96 193/86/96
f 193/86/96 192/85/96 194/87/97 195/88/97
f 195/88/97 194/87/97 196/89/98 197/90/98
f 197/90/98 196/89/98 198/91/99 199/92/99
f 199/92/99 198/91/99 200/93/100 201/94/100
f 201/94/100 200/93/100 202/95/101 203/96/101
f 203/96/101 202/95/101 204/97/102 205/98/102
f 205/98/102 204/97/102 206/99/103 207/100/103
f 207/100/103 206/99/103 208/101/104 209/102/104
f 209/102/104 208/101/104 210/103/105 211/104/105
f 211/104/105 210/103/105 212/105/106 213/106/106
f 213/106/106 212/105/106 214/107/107 215/108/107
f 215/108/107 214/107/107 216/109/108 217/110/108
f 217/110/108 216/109/108 218/111/109 219/112/109
f 219/112/109 218/111/109 220/113/110 221/114/110
f 221/114/110 220/113/110 222/115/111 223/116/111
f 223/116/111 222/115/111 224/117/112 225/118/112
f 225/118/112 224/117/112 226/119/113 227/120/113
f 227/120/113 226/119/113 228/121/114 229/122/114
f 229/122/114 228/121/114 230/123/115 231/124/115
f 231/124/115 230/123/115 232/125/116 233/126/116
f 233/126/116 232/125/116 234/127/117 235/128/117
f 235/128/117 234/127/117 236/129/118 237/130/118
f 237/130/118 236/129/118 238/131/119 239/132/119
f 239/132/119 238/131/119 240/133/120 241/134/120
f 241/134/120 240/133/120 242/135/121 243/136/121
f 184/137/122 183/138/122 244/139/122 242/140/122 240/141/122 238/142/122 236/143/122 234/144/122 232/145/122 230/146/122 228/147/122 226/148/122 224/149/122 222/150/122 220/151/122 218/152/122 216/153/122 214/154/122 212/155/122 210/156/122 208/157/122 206/158/122 204/159/122 202/160/122 200/161/122 198/162/122 196/163/122 194/164/122 192/165/122 190/166/122 188/167/122 186/168/122
f 243/136/121 242/135/121 244/169/123 245/170/123
f 245/170/123 244/169/123 183/171/91 182/172/91
f 182/173/124 185/174/124 187/175/124 189/176/124 191/177/124 193/178/124 195/179/124 197/180/124 199/181/124 201/182/124 203/183/124 205/184/124 207/185/124 209/186/124 211/187/124 213/188/124 215/189/124 217/190/124 219/191/124 221/192/124 223/193/124 225/194/124 227/195/124 229/196/124 231/197/124 233/198/124 235/199/124 237/200/124 239/201/124 241/202/124 243/203/124 245/204/124
